Coordinates
version=1
nRows=5
nColumns=40
inDegrees=yes

Units are S.I. units (second, meters, Newtons, ...)
Angles are in degrees.

endheader
time	pelvis_tilt	pelvis_list	pelvis_rotation	pelvis_tx	pelvis_ty	pelvis_tz	hip_flexion_r	hip_adduction_r	hip_rotation_r	knee_angle_r	knee_angle_r_beta	ankle_angle_r	subtalar_angle_r	mtp_angle_r	hip_flexion_l	hip_adduction_l	hip_rotation_l	knee_angle_l	knee_angle_l_beta	ankle_angle_l	subtalar_angle_l	mtp_angle_l	lumbar_extension	lumbar_bending	lumbar_rotation	arm_flex_r	arm_add_r	arm_rot_r	elbow_flex_r	pro_sup_r	wrist_flex_r	wrist_dev_r	arm_flex_l	arm_add_l	arm_rot_l	elbow_flex_l	pro_sup_l	wrist_flex_l	wrist_dev_l
     41.58250000	     -5.82870548	     -4.04503984	     -7.55090033	      0.99055809	      0.92634752	      0.48772242	     19.91821809	      1.71446694	     -3.67676816	     19.08820388	     19.08820388	      7.83144285	      4.84329329	     -3.65850785	      3.90832956	     -9.41508113	    -13.18167837	     20.23835815	     20.23835815	     18.89092043	     -8.37036019	      2.65746828	     -9.65239661	      7.30392822	     -0.43210962	    -17.30270675	    -17.23436167	     -4.82030066	     46.29702716	     45.17432705	      0.00000000	      0.00000000	     36.46397889	    -23.17992337	     -9.59297484	     75.67494599	     48.29680407	      0.00000000	      0.00000000
     41.60342857	     -5.78084327	     -4.14223316	     -6.99334547	      0.99157036	      0.92691748	      0.49270634	     19.31201251	      2.01830554	     -4.08956538	     18.88259360	     18.88259360	      8.16932700	      4.71356502	     -3.67841157	      4.60246648	    -10.19323770	    -12.67750256	     22.13125284	     22.13125284	     18.46037916	     -8.48821219	      2.14928140	     -9.71514442	      7.36104835	     -0.45722140	    -16.02636016	    -17.70784158	     -5.05324457	     46.79165420	     45.17870796	      0.00000000	      0.00000000	     34.39029724	    -22.34488963	     -9.25326617	     74.41795901	     48.23403691	      0.00000000	      0.00000000
     41.62435714	     -5.77521610	     -4.25184228	     -6.37745975	      0.99239073	      0.92732919	      0.49752405	     18.74185226	      2.33713681	     -4.53816762	     18.62117623	     18.62117623	      8.46823204	      4.53262884	     -3.71060375	      5.81074067	    -11.07519846	    -11.94542132	     24.79048803	     24.79048803	     17.77177892	     -8.86854996	      1.17478285	     -9.72323533	      7.45163107	     -0.62725471	    -14.52894823	    -18.15859058	     -5.31642341	     47.31349790	     45.18541630	      0.00000000	      0.00000000	     32.13596355	    -21.57168477	     -8.84507770	     72.81096047	     48.15875874	      0.00000000	      0.00000000
     41.64528571	     -5.70937044	     -4.35135578	     -5.77493941	      0.99315244	      0.92773619	      0.50228154	     18.15099050	      2.65672483	     -4.93951986	     18.42514540	     18.42514540	      8.76294993	      4.29723357	     -3.78143390	      7.30175678	    -11.95695940	    -11.01510826	     28.00083611	     28.00083611	     16.71329154	     -9.60966745	     -0.12225799	     -9.80233545	      7.51404032	     -0.71831134	    -12.85517138	    -18.60125437	     -5.56313305	     47.80085949	     45.19350461	      0.00000000	      0.00000000	     29.73121258	    -20.73271229	     -8.31240838	     71.00607759	     48.07065509	      0.00000000	      0.00000000
     41.66621429	     -5.56230557	     -4.48559658	     -5.18276173	      0.99375326	      0.92806905	      0.50687298	     17.54701560	      2.99685473	     -5.33331042	     18.32893717	     18.32893717	      9.04087101	      4.02702703	     -3.87100921	      9.06533446	    -12.85533874	     -9.85273627	     31.75087622	     31.75087622	     15.30107847	    -10.71455685	     -1.48908428	     -9.98023714	      7.59625554	     -0.72167466	    -11.00479909	    -19.04464414	     -5.78836314	     48.28991717	     45.20068699	      0.00000000	      0.00000000	     27.26358801	    -19.83291011	     -7.67442739	     69.07510480	     47.97342806	      0.00000000	      0.00000000
